<svg width="2250" height="1038" xmlns="http://www.w3.org/2000/svg">

 <g>
  <title>Layer 1</title>
  <path id="svg_1" d="m1123.48089,14.96471c-9.87891,0 -20.10156,0.94922 -29.51172,2.36719c0.33984,-0.02735 0.67188,-0.05078 1.01172,-0.07813c12.82812,-0.91015 24.66016,-1.75 36.73047,-2.0625c-2.69922,-0.16015 -5.46094,-0.22656 -8.23047,-0.22656zm613.28125,339.34766c9.33984,0 19.60937,2.33984 29.82812,7.60156c75.48829,-15.67188 159.82032,-33.05078 223.19141,-45.28125c23.77734,-4.58985 48.66016,-9.03906 72.71875,-13.33985c44.91016,-8.01953 87.32813,-15.60156 119.73828,-23.48828c46.16016,-11.24218 52.01172,-18.58984 52.74219,-20.26172c-0.98047,-9.30859 -14.35938,-12.05859 -52.37109,-18.53906c-21.0586,-3.58984 -49.89844,-8.51172 -85.75782,-17.12109c-79.95312,-19.17969 -329.07031,-70.21094 -481.79297,-100.89063c2.17969,1.3125 4.47266,2.63282 6.86329,3.92969c26.05859,14.22266 48.90625,77.19141 75.36718,150.10938c9.66016,26.64062 19.48047,53.6914 29.49219,78.23046c3.16016,-0.61718 6.50781,-0.94921 9.98047,-0.94921zm-1020.58203,-70.35938c-42.5,9.07813 -69.1211,21.17188 -69.1211,38.01172c0,8.36719 -0.6289,24.33984 -1.6875,45.47656c10.57813,-33.70703 31.4375,-63.89844 70.8086,-83.48828zm1039.60937,131.82813c3.40235,5.60156 6.83203,10.64062 10.28125,15.03125c2.21875,2.80078 4.32032,5.33984 6.32032,7.62109c-2.14063,-7.62891 -7.78125,-15.32031 -16.60157,-22.65234zm31.88282,37.22265c8.02734,5.8711 12.61718,5.8711 13.98828,4.82813c6.01172,-4.52735 4.78906,-30.84766 -15.14063,-58.52735c-6.87109,-9.54297 -14.64844,-16.64062 -22.55859,-21.52343c-8.6211,1.79296 -17.03906,3.54296 -25.21094,5.24218c1.69141,3.67969 3.39063,7.23828 5.08984,10.69922c3.69141,-0.30859 8.46875,0.89063 14.58985,5.19922c18.4414,13.01953 28.46875,27.51172 29.80078,43.08203c0.30859,3.67969 0.12109,7.35938 -0.55859,11zm-37.47266,-18.40234c2.41016,9.5625 6.05078,21.5 11.03906,35.79297c3.23047,-3.26953 6.69141,-7.51953 9.08203,-12.46094c-4.89062,-4.60938 -10.21875,-10.46875 -16.03125,-17.83984c-1.36718,-1.74219 -2.73047,-3.57032 -4.08984,-5.49219zm-40.94922,-45.44922c-1.21094,4.90234 -1.37891,10.55078 -0.42187,16.78906c5.21093,33.83985 22.46093,59.42188 37.1914,66.39063c-0.57031,-1.66016 -1.1289,-3.28907 -1.66015,-4.89844c-12.23829,-36.60156 -14.03125,-53.92969 -11.8711,-62.91016c-2.95703,-5.83203 -5.8789,-11.96875 -8.77734,-18.37109c-4.91016,1.01953 -9.73047,2.01953 -14.46094,3zm-1055.92969,11c18.10938,4.24219 40.07032,9.89062 64.37891,16.14062c74.85156,19.25 177.35937,45.6211 263.82031,55.19922c98.30078,10.88282 155.44141,-2.16797 169.83203,-38.77734c21.0586,-53.62109 20.86719,-95.74219 -0.55078,-125.20313c-27.97265,-38.44921 -91.42969,-54.94921 -188.58203,-48.98046c-10.17969,0.62109 -20.34766,1.26171 -30.45703,1.91015c-34.72266,3.89063 -71.08984,8.72266 -112.15234,14.17188c-10.07813,1.33984 -20.4375,2.71875 -31.14063,4.1289c-95.00781,12.53125 -126.42969,63.85157 -135.14844,121.41016zm958.64844,279.80078c0.51172,0.23828 1.01172,0.48828 1.5,0.75c-0.14062,-3.67969 -0.32812,-7.60156 -0.59766,-11.73047c-1.58984,-24.6289 -3.75,-67.01953 -6.26171,-116.09765c-2.3086,-45.3125 -4.8086,-94.22266 -7.23047,-136.51172c-19.09766,14.98828 -15.75,49.64062 -3,150.03125c1.58984,12.48828 3.29297,25.92968 5.08203,40.38672c4.11719,33.40234 7.6289,56.79296 10.50781,73.17187zm-745.61719,-32.35937c53.33985,0 105.89844,4.73046 147.95703,15.66796c101.23047,26.32032 132.22266,23.69141 210.92969,2.05079c79.1211,-21.75782 224.75,-23.6875 311.65235,-4.14063c11.1289,2.5 20.98046,4.51172 29.66796,6.29297c11.42969,2.32812 21.07032,4.37891 29.21094,6.64844c-2.91797,-17.67969 -6,-39.58985 -9.19922,-65.5c-1.78125,-14.42969 -3.49218,-27.85157 -5.07031,-40.33203c-13.85937,-109.16797 -19.17969,-151 16.87891,-168.89844c-1.28907,-21.73047 -2.55078,-41.1211 -3.73828,-56.57031c-4.66016,-60.58985 -80.87891,-66.16797 -232.73047,-77.28125c-27.21094,-1.98829 -58.03907,-4.23829 -90.73828,-7.01954c-76.57032,-6.5 -136.89063,-8.82031 -191.07032,-8.03906c38.20703,8.85938 65.91797,24.96094 82.82813,48.21875c24.64062,33.8711 25.4414,80.8125 2.3789,139.5c-17.41796,44.33203 -78.07031,60.08985 -185.4375,48.20313c-87.51953,-9.69141 -190.62109,-36.21094 -265.91015,-55.57032c-23.5,-6.05078 -44.78906,-11.51953 -62.41016,-15.67968c-2.51953,28.73047 -0.39062,58.27734 1.52735,84.76953c1.07031,14.84765 2.08203,28.86719 2.08203,40.91015c0,5.25782 0.01172,10.53907 0.01953,15.8086c0.07031,40.24219 0.14062,81.23047 -3.94922,119.01953c2.05859,-0.75781 4.17969,-1.48828 6.37109,-2.16797c50.82032,-15.73047 130.61719,-25.89062 208.75,-25.89062zm-228.53125,-150.71094c-3.08203,49.25 -6.49218,101.64844 -9.48047,147.60937c-1.05078,16.15235 -2.03906,31.40235 -2.9414,45.3125c3.03125,-2.33203 6.30078,-4.54297 9.83984,-6.61328c5.08985,-39.41015 5.01172,-83.41015 4.94141,-126.52734c-0.00781,-5.28906 -0.01953,-10.57031 -0.01953,-15.83985c0,-11.5 -0.98828,-25.26171 -2.03907,-39.82031c-0.10156,-1.37109 -0.19921,-2.74219 -0.30078,-4.12109zm-13.83203,214.89844c-0.46484,7.26171 -0.88672,13.96093 -1.26562,20c-0.19922,3.17187 -0.40235,6.22265 -0.60938,9.14062c4.17578,-11.52734 7.39844,-23.95703 9.875,-37.07812c-3.02734,2.55859 -5.67969,5.23828 -8,7.9375zm219.15235,57.89062c72.21875,0 148.1875,7.88281 202,25.42969c71.53125,23.32031 115.89843,12.33203 183.07031,-4.3086c17.77734,-4.41015 37.9375,-9.41015 60.27734,-14.1289c105.04297,-22.22266 246.54297,-2.60156 295.55078,12.32031c17.64063,5.36719 32.8711,10.00781 37.28907,6.51953c6.40234,-5.05078 4.58203,-35.10937 3.70312,-49.55078c-0.41016,-6.82812 -0.91016,-12.73828 -1.54297,-17.87109c-1.91797,2.39062 -4.04687,2.58984 -5.78906,2.76172c-8.83984,0.80859 -12.48047,-8.94922 -17.19922,-31.19141c-0.60937,-2.83984 -1.21094,-5.87891 -1.82812,-9.14063c-8.60157,-2.9375 -20.1211,-5.28906 -35.11329,-8.34765c-8.75781,-1.78906 -18.6875,-3.82031 -29.95703,-6.35156c-83.47265,-18.78125 -228.55078,-16.89063 -304.38281,3.96093c-81.92969,22.53125 -116.20703,24.64063 -218.6875,-2c-101.23047,-26.32031 -264.91016,-15.83203 -348.49219,10.03907c-4.73047,1.46875 -9.05859,3.17187 -13,5.0625c-3.6875,24.78906 -9.55859,47.83984 -18.89062,67.9375c-3.41016,7.33984 -7.03906,12.73046 -10.875,16.17187c-0.875,12 -1.19922,21.66797 0.5664,23.64063c2.72266,1.55859 17.03907,-2.45313 30.89063,-6.32032c9.51953,-2.67187 21.37891,-5.99218 35.67969,-9.48047c39.9414,-9.76953 97.05859,-15.15234 156.73047,-15.15234zm1211.12109,268.70313c-14.72266,0 -35.5625,-6.46094 -65.05078,-25.13282c-83.46094,-52.85937 -113.3125,-163.01953 -142.17188,-269.55859c-14.23828,-52.58203 -27.69922,-102.25 -47.01953,-142.90234c-19.44922,-40.91797 -36.07812,-79.65625 -47.98047,-111.63672c-2.6289,-0.11328 -5.33984,-0.61328 -8.07812,-1.51172c-23.03125,-7.53125 -44.03906,-40.92969 -49.96094,-79.41016c-0.85156,-5.55859 -1.01172,-10.84765 -0.51172,-15.78906c-28.4375,5.89844 -52.27734,10.82812 -67.60937,13.89062c-4.36719,0.87891 -8.32032,1.82032 -11.89063,2.91797c2.54297,43.73047 5.17188,95.28907 7.60156,142.8711c2.51172,49.01953 4.67188,91.37109 6.25,115.89843c0.67188,10.3711 0.98047,19.03125 1,26.24219c6.75,10.46094 9.66016,25.98047 11.16016,50.78906c2.14844,35.46094 1.30078,53.82032 -9.37891,62.23829c-10.57031,8.34375 -25.76953,3.71093 -50.94921,-3.94922c-47.75,-14.53907 -185.67188,-33.66016 -288.07032,-12c-22.08984,4.67968 -42.12109,9.64062 -59.78125,14.01172c-67.17968,16.64843 -115.71875,28.67968 -191.33203,4.03125c-95.95703,-31.30079 -264.19922,-31.08204 -350.51953,-9.98047c-14.04687,3.42968 -25.77734,6.71875 -35.19922,9.34765c-24.94922,6.99219 -36.33203,10.17969 -44.50781,3.42188c-6.49609,-5.35938 -7.33203,-14.42969 -6.27344,-31.55078c-6.78515,-2.60938 -11.13281,-10.87891 -11.78906,-22.71875c-0.70313,-12.69141 3.10547,-33.47266 17.13281,-51.95313c1.16016,-18.09765 2.54297,-39.34765 4.04297,-62.42969c4.85156,-74.57812 10.80469,-166.1289 14.66406,-233.51953c-59.25781,-11.83984 -182.77734,-35.89062 -302.26953,-59.14843c-108.88672,-21.19922 -211.73828,-41.21875 -255.08984,-49.89063c-49.19531,-9.83984 -70.32813,-20.23828 -70.67578,-34.76953c-0.35157,-14.67188 20.68359,-26.21875 70.32422,-38.62891c84.3125,-21.08203 564.67187,-120.78125 835.21093,-176.37109l3.01953,14.69141c-270.42968,55.5664 -750.52343,155.21875 -834.58984,176.22656c-53.00391,13.26172 -58.42578,22.45312 -58.93359,23.72265c0.5625,1.23047 6.33593,9.96875 58.58593,20.41797c43.31641,8.66016 146.14454,28.67969 255.01563,49.88282c118.13281,23 240.19141,46.75781 300.26172,58.73828c1.92969,-34.76953 3.16015,-61.33203 3.16015,-72.89844c0,-47.16016 96.25,-63.22266 298.05079,-76.43359c102.48046,-11.48829 190.71093,-14.83985 342.33203,-1.95704c32.60937,2.75782 63.39843,5.01954 90.55859,7c155.37109,11.36719 240.94922,17.62891 246.60156,91.08985c1.10938,14.4375 2.27735,32.30078 3.48828,52.26953c3.08204,-0.85156 6.35938,-1.60938 9.85157,-2.30859c16.63672,-3.33204 43.39843,-8.8711 75.17968,-15.47266c3.3086,-6.48047 8.23829,-11.78906 14.62891,-15.59766c-10.08984,-24.73047 -19.89844,-51.76172 -29.55859,-78.41015c-23.29297,-64.17969 -47.3711,-130.55078 -68.45313,-142.05078c-8.97656,-4.90235 -18.08984,-10.85938 -25.92969,-17.01172c-16.91015,-0.73047 -44.98046,-4.41016 -92.16015,-13.55078c-64.92969,-12.57813 -139.50781,-30.92969 -194.61719,-47.88672c-116.37109,-35.80078 -152.01953,-33.26172 -205.98047,-29.42188c-6.48047,0.46094 -13.21094,0.94141 -20.35156,1.3711c-23.23828,1.39843 -28.87891,-0.83204 -31.64844,-5.76172c-1.67187,-2.98047 -1.44922,-6.5 0.58985,-9.41797c7.84765,-11.24219 64.80078,-22.51953 99.66796,-16.94141c24.66016,3.94922 88.38282,19.51172 162.15235,37.51953c77.14844,18.83985 164.58984,40.19141 218.07031,50.67969c11.45703,2.25 25.78906,5.08203 42.37891,8.39063c-0.28907,-1 -0.44141,-1.94922 -0.44141,-2.83985c-0.00781,-3.48828 1.75,-6.55859 4.72266,-8.21875c5.09765,-2.83984 12.98828,-1.92187 34.89843,11.76953c2.19922,1.37891 7.33204,4.57813 9.55079,9.03907c152.64062,30.65234 404.17968,82.16015 484.71093,101.49218c35.36719,8.48828 62.76953,13.16016 84.77735,16.91016c41.96093,7.16016 63.01953,10.75 64.82031,32.30859c1.98047,23.76953 -51.92969,35.80078 -184.80859,59.53907c-24.01172,4.28906 -48.83204,8.71875 -72.51954,13.30078c-58.89062,11.35937 -138.6914,27.76172 -208.99218,42.33984c5.24218,4.66016 10.3125,10.23828 15.0625,16.83984c22.34765,31.03125 27.83984,67.33204 11.98828,79.26954c-5,3.76953 -14.14063,6.73046 -28.39844,-2.35938c-2.70312,4.76172 -6.28125,9.39844 -10.71094,13.82813c-1.55859,1.55078 -3.21093,2.88281 -4.94922,3.98046c10.73047,28.76954 26.09766,65.24219 46.9375,109.08204c19.91016,41.87109 33.53125,92.16796 47.96094,145.41796c28.10938,103.76954 57.17969,211.07032 135.71875,260.8125c35.72266,22.61719 61.98047,28.77735 72.05078,16.91797c16.35938,-19.27734 -2.69922,-80.48047 -37.08984,-119.07812c-7.55078,-8.48047 -15.08984,-16.44141 -23.07813,-24.88281c-43.30078,-45.71875 -92.38281,-97.53907 -153.55078,-247.8086c-50.62109,-124.37109 -47.41015,-137.75781 -37.33984,-143.08984c13.98047,-7.42969 33.28906,9.9414 170.08984,215.1289c71.75782,107.65235 188.50782,230.8125 189.67969,232.04297l-10.87109,10.32813c-1.17969,-1.23828 -118.82032,-125.32813 -191.28907,-234.05078c-40.92968,-61.39063 -122.85156,-184.25782 -148.46093,-206.41797c1.58984,11.35937 9.91015,41.36719 42.08203,120.41015c60.10937,147.66016 108.14844,198.37891 150.55078,243.14844c8.06641,8.51953 15.6875,16.57031 23.39844,25.21875c36.71875,41.22266 61.03125,110.82031 37.30859,138.76172c-5.19922,6.12109 -13.4375,11.17188 -26.45703,11.17188" fill="#ffffff" fill-rule="nonzero"/>
 </g>
</svg>